<?xml version="1.0" encoding="UTF-8" standalone="no"?>
<!-- Created with Inkscape (http://www.inkscape.org/) -->

<svg
   width="142.71638"
   height="63.686291"
   viewBox="0 0 37.760372 16.850325"
   version="1.1"
   id="svg1"
   xml:space="preserve"
   inkscape:version="1.4 (e7c3feb100, 2024-10-09)"
   sodipodi:docname="wordmark.svg"
   xmlns:inkscape="http://www.inkscape.org/namespaces/inkscape"
   xmlns:sodipodi="http://sodipodi.sourceforge.net/DTD/sodipodi-0.dtd"
   xmlns="http://www.w3.org/2000/svg"
   xmlns:svg="http://www.w3.org/2000/svg"><sodipodi:namedview
     id="namedview1"
     pagecolor="#ffffff"
     bordercolor="#000000"
     borderopacity="0.25"
     inkscape:showpageshadow="2"
     inkscape:pageopacity="0.0"
     inkscape:pagecheckerboard="0"
     inkscape:deskcolor="#d1d1d1"
     inkscape:document-units="px"
     inkscape:zoom="3.9553973"
     inkscape:cx="115.1591"
     inkscape:cy="38.554914"
     inkscape:window-width="1920"
     inkscape:window-height="1025"
     inkscape:window-x="0"
     inkscape:window-y="31"
     inkscape:window-maximized="1"
     inkscape:current-layer="layer1" /><defs
     id="defs1" /><g
     inkscape:label="Layer 1"
     inkscape:groupmode="layer"
     id="layer1"
     transform="translate(-0.22084498)"><circle
       style="fill:none;stroke:#800000;stroke-width:2.3445;stroke-linecap:round;stroke-linejoin:miter;stroke-dasharray:none;stroke-opacity:0.976471;paint-order:normal"
       id="path2"
       cx="8.6460085"
       cy="8.4251633"
       r="7.2529135" /><path
       id="path1"
       style="-inkscape-font-specification:'Arial Black,  Bold';fill:#800000;stroke:#ffffff;stroke-width:1.32292;stroke-linecap:round;stroke-linejoin:round;stroke-dasharray:none;paint-order:stroke fill markers"
       d="M 35.122611,0.66145756 H 31.06583 V 4.0925002 H 29.82188 29.697068 26.441463 25.776256 21.386872 L 18.851558,6.7463521 V 0.75601016 H 14.722954 V 12.699738 c -0.107013,-0.223467 -0.21998,-0.455783 -0.260085,-0.606635 -0.05086,-0.219822 -0.08089,-0.537732 -0.08089,-0.944816 V 7.2727994 c 0,-0.4321103 -0.09487,-0.8813016 -0.282398,-1.3457525 v -0.00278 C 13.909912,5.4504495 13.643947,5.074281 13.301895,4.8065161 12.827938,4.4305048 12.234405,4.1836439 11.53638,4.06949 h -0.0028 C 10.841932,3.9513051 9.9404286,3.8944725 8.8211669,3.8944725 c -0.7022123,0 -1.3577261,0.047659 -1.9649385,0.1429425 C 6.2482073,4.1328254 5.764275,4.267944 5.3989108,4.4509028 4.9071147,4.6961547 4.5217492,4.989279 4.2490943,5.3357525 v 0.00209 C 3.9812464,5.6806047 3.7850609,6.1395992 3.648038,6.7142772 L 3.60899,6.874652 7.4719275,7.2428163 7.5158555,7.1326453 C 7.6549076,6.7710123 7.830346,6.5448583 8.0227794,6.4332722 8.2852249,6.2813326 8.7145299,6.1899212 9.3057759,6.1899212 c 0.4537657,0 0.7422011,0.086663 0.8813631,0.208487 0.121497,0.106367 0.181908,0.3523951 0.202212,0.6617198 C 9.9826266,7.2014377 9.5888186,7.3260188 9.2227999,7.4185311 8.8188809,7.515172 7.91613,7.6920746 6.5243226,7.9449784 5.3442065,8.1573662 4.5140472,8.4799582 4.0413045,8.9497602 3.5805409,9.4076571 3.3509963,9.9988725 3.3509963,10.694357 c 0,0.748123 0.3219343,1.394088 0.9483022,1.902881 h 0.00279 c 0.6417875,0.516048 1.5665572,0.764219 2.7486852,0.764219 0.8874635,0 1.6709212,-0.122761 2.3519292,-0.373742 h 0.0028 c 0.429316,-0.162226 0.8532451,-0.460611 1.2774181,-0.799084 0.02677,0.127457 0.05153,0.27495 0.08088,0.358403 l 0.0028,0.002 c 0.04955,0.134487 0.142783,0.309365 0.285187,0.538998 l 0.04741,0.07531 h 3.623771 0.224525 3.904077 v -2.365807 l 1.188865,-1.0556835 1.906366,3.4215575 h 3.829467 0.748184 3.297443 V 6.8446688 h 1.243949 v 2.9397367 c 0,0.9897555 0.100065,1.7137045 0.324236,2.1908575 0.225947,0.461337 0.580669,0.815206 1.050106,1.045225 0.480979,0.235675 1.18586,0.340969 2.125313,0.340969 0.811345,0 1.680937,-0.09177 2.609922,-0.275426 l 0.144337,-0.02789 -0.31308,-2.637117 -0.191054,0.05509 c -0.484685,0.140735 -0.858042,0.208487 -1.100311,0.208487 -0.267096,0 -0.407181,-0.06797 -0.498556,-0.208487 -0.04137,-0.06332 -0.09413,-0.301599 -0.09413,-0.6665995 V 6.8446688 h 2.044428 V 4.0925002 h -2.04442 z m -9.346357,0.094552 V 3.3401336 H 29.82188 V 0.75601016 Z m 0,3.92290354 V 12.005246 L 22.764,7.3404356 Z M 10.420033,9.0529582 v 0.3353919 c 0,0.4022214 -0.07482,0.7194799 -0.21058,0.9552749 -0.128363,0.227401 -0.3546594,0.427728 -0.6930974,0.598964 v 0.0028 c -0.3290767,0.169375 -0.6822657,0.253118 -1.0696287,0.253118 -0.3692123,0 -0.6241024,-0.0773 -0.7921116,-0.210579 h -0.00279 C 7.4837581,10.843973 7.4049886,10.675073 7.4049886,10.446125 c 0,-0.19113 0.07883,-0.354143 0.2607832,-0.5138955 0.1469894,-0.128936 0.6170201,-0.319323 1.3603961,-0.4985564 0.4829417,-0.110416 0.9424727,-0.241085 1.3938651,-0.3807149 z"
       sodipodi:nodetypes="cccccccccccccsscccccssccccccccsccccssccsccccccccccccccccccscssccccscscccccccccccccccscccsccsccc" /></g></svg>
